<svg width="77" height="57" viewBox="0 0 77 57" fill="none" xmlns="http://www.w3.org/2000/svg">
<path fill-rule="evenodd" clip-rule="evenodd" d="M54.556 45.9708H57V12.5135H54.556V45.9708Z" fill="#66BB6A"/>
<path fill-rule="evenodd" clip-rule="evenodd" d="M75.2617 6.9173H63.8437C59.0327 6.9173 55.1307 10.73 55.1307 15.4353V18.7251H55.1977C55.5407 14.3277 59.2587 10.8522 63.8437 10.8522H75.1947C75.2117 10.6362 75.2617 10.4279 75.2617 10.206V6.9173Z" fill="#66BB6A"/>
<path fill-rule="evenodd" clip-rule="evenodd" d="M75.2617 6.9173H63.8437C59.0327 6.9173 55.1307 10.73 55.1307 15.4353V18.7251H55.1977C55.5407 14.3277 59.2587 10.8522 63.8437 10.8522H75.1947C75.2117 10.6362 75.2617 10.4279 75.2617 10.206V6.9173Z" stroke="white" stroke-width="2" stroke-linecap="round" stroke-linejoin="round"/>
<path fill-rule="evenodd" clip-rule="evenodd" d="M55.1973 18.7252H66.5483C71.1343 18.7252 74.8503 15.2498 75.1943 10.8524H63.8433C59.2593 10.8524 55.5413 14.3279 55.1973 18.7252" fill="#66BB6A"/>
<path fill-rule="evenodd" clip-rule="evenodd" d="M55.1973 18.7252H66.5483C71.1343 18.7252 74.8503 15.2498 75.1943 10.8524H63.8433C59.2593 10.8524 55.5413 14.3279 55.1973 18.7252Z" stroke="white" stroke-width="2" stroke-linecap="round" stroke-linejoin="round"/>
<path fill-rule="evenodd" clip-rule="evenodd" d="M55.1309 12.8079H43.7139C38.9019 12.8079 34.9999 8.99416 34.9999 4.28983V1.00012H35.0669C35.4099 5.39748 39.1279 8.87294 43.7139 8.87294H55.0639C55.0809 9.08899 55.1309 9.29723 55.1309 9.51915V12.8079Z" fill="#66BB6A"/>
<path fill-rule="evenodd" clip-rule="evenodd" d="M55.1309 12.8079H43.7139C38.9019 12.8079 34.9999 8.99416 34.9999 4.28983V1.00012H35.0669C35.4099 5.39748 39.1279 8.87294 43.7139 8.87294H55.0639C55.0809 9.08899 55.1309 9.29723 55.1309 9.51915V12.8079Z" stroke="white" stroke-width="2" stroke-linecap="round" stroke-linejoin="round"/>
<path fill-rule="evenodd" clip-rule="evenodd" d="M35.0669 1H46.4179C51.0029 1 54.7199 4.47546 55.0639 8.87282H43.7129C39.1279 8.87282 35.4099 5.39736 35.0669 1" fill="#66BB6A"/>
<path fill-rule="evenodd" clip-rule="evenodd" d="M35.0669 1H46.4179C51.0029 1 54.7199 4.47546 55.0639 8.87282H43.7129C39.1279 8.87282 35.4099 5.39736 35.0669 1Z" stroke="white" stroke-width="2" stroke-linecap="round" stroke-linejoin="round"/>
<path fill-rule="evenodd" clip-rule="evenodd" d="M57.3633 35.5339V35.5339C57.3633 32.7193 55.2193 30.3446 52.3633 29.9966L37.2063 28.144L1.00031 55.7472H29.0003L37.2063 45.3864" fill="#66BB6A"/>
<path d="M57.3633 35.5339V35.5339C57.3633 32.7193 55.2193 30.3446 52.3633 29.9966L39.3723 28.4089C37.9863 28.2388 36.5873 28.6162 35.4853 29.456L1.00031 55.7472" stroke="white" stroke-width="2" stroke-linecap="round" stroke-linejoin="round"/>
<path fill-rule="evenodd" clip-rule="evenodd" d="M66.9766 28.1443L62.8436 28.6244C62.3106 28.6869 61.7976 28.858 61.3386 29.1298L56.5806 31.9395V38.1494H60.9996L66.9766 28.1443Z" fill="#66BB6A"/>
<path fill-rule="evenodd" clip-rule="evenodd" d="M66.9766 28.1443L62.8436 28.6244C62.3106 28.6869 61.7976 28.858 61.3386 29.1298L56.5806 31.9395V38.1494H60.9996L66.9766 28.1443Z" stroke="white" stroke-width="2" stroke-linecap="round" stroke-linejoin="round"/>
<path fill-rule="evenodd" clip-rule="evenodd" d="M44.7651 35.5338H59.8831L68.5301 27.0793C69.3851 26.2444 70.6891 26.0372 71.7691 26.5651L75.0001 28.1439L59.8831 45.3863H37.2061L29.0001 55.7472" fill="#66BB6A"/>
<path d="M44.7651 35.5338H59.8831L68.5301 27.0793C69.3851 26.2444 70.6891 26.0372 71.7691 26.5651L75.0001 28.1439L59.8831 45.3863H37.2061L29.0001 55.7472" stroke="white" stroke-width="2" stroke-linecap="round" stroke-linejoin="round"/>
</svg>
