<svg width="86" height="72" viewBox="0 0 86 72" fill="none" xmlns="http://www.w3.org/2000/svg">
<g filter="url(#filter0_dd_0_131)">
<path fill-rule="evenodd" clip-rule="evenodd" d="M79.7207 63H43.5297V49.046C43.5297 44.439 46.5507 40.38 50.9617 39.056L61.6247 35.857L72.2877 39.056C76.6997 40.38 79.7207 44.439 79.7207 49.046V63Z" fill="#66BB6A"/>
<path fill-rule="evenodd" clip-rule="evenodd" d="M79.7207 63H43.5297V49.046C43.5297 44.439 46.5507 40.38 50.9617 39.056L61.6247 35.857L72.2877 39.056C76.6997 40.38 79.7207 44.439 79.7207 49.046V63Z" stroke="white" stroke-width="2" stroke-linecap="round" stroke-linejoin="round"/>
<path fill-rule="evenodd" clip-rule="evenodd" d="M71.125 21.3809L68.75 12.3329H54.5L52.125 21.3809L42.625 26.8099H80.625L71.125 21.3809Z" fill="#66BB6A"/>
<path fill-rule="evenodd" clip-rule="evenodd" d="M71.125 21.3809L68.75 12.3329H54.5L52.125 21.3809L42.625 26.8099H80.625L71.125 21.3809Z" stroke="white" stroke-width="2" stroke-linecap="round" stroke-linejoin="round"/>
<path d="M71.125 21.3809H52.125" stroke="white" stroke-width="2"/>
<path fill-rule="evenodd" clip-rule="evenodd" d="M61.625 43.0957C56.628 43.0957 52.577 39.0447 52.577 34.0477V26.8097H70.673V34.0477C70.673 39.0447 66.622 43.0957 61.625 43.0957Z" fill="#66BB6A"/>
<path fill-rule="evenodd" clip-rule="evenodd" d="M61.625 43.0957V43.0957C56.628 43.0957 52.577 39.0447 52.577 34.0477V26.8097H70.673V34.0477C70.673 39.0447 66.622 43.0957 61.625 43.0957Z" stroke="white" stroke-width="2" stroke-linecap="round" stroke-linejoin="round"/>
<path fill-rule="evenodd" clip-rule="evenodd" d="M50.3926 63H6.1076V45.924C6.1076 40.288 9.80361 35.319 15.2026 33.7L28.2496 29.786L41.2976 33.7C46.6966 35.319 50.3926 40.288 50.3926 45.924V63Z" fill="#66BB6A"/>
<path fill-rule="evenodd" clip-rule="evenodd" d="M50.3926 63H6.1076V45.924C6.1076 40.288 9.80361 35.319 15.2026 33.7L28.2496 29.786L41.2976 33.7C46.6966 35.319 50.3926 40.288 50.3926 45.924V63Z" stroke="white" stroke-width="2" stroke-linecap="round" stroke-linejoin="round"/>
<path fill-rule="evenodd" clip-rule="evenodd" d="M39.875 12.0713L36.969 1.00031H19.531L16.625 12.0713L5 18.7143H51.5L39.875 12.0713Z" fill="#66BB6A"/>
<path fill-rule="evenodd" clip-rule="evenodd" d="M39.875 12.0713L36.969 1.00031H19.531L16.625 12.0713L5 18.7143H51.5L39.875 12.0713Z" stroke="white" stroke-width="2" stroke-linecap="round" stroke-linejoin="round"/>
<path d="M39.875 12.0713H16.625" stroke="white" stroke-width="2"/>
<path fill-rule="evenodd" clip-rule="evenodd" d="M28.25 38.6426C22.136 38.6426 17.179 33.6856 17.179 27.5716V18.7136H39.321V27.5716C39.321 33.6856 34.364 38.6426 28.25 38.6426Z" fill="#66BB6A"/>
<path fill-rule="evenodd" clip-rule="evenodd" d="M28.25 38.6426V38.6426C22.136 38.6426 17.179 33.6856 17.179 27.5716V18.7136H39.321V27.5716C39.321 33.6856 34.364 38.6426 28.25 38.6426Z" stroke="white" stroke-width="2" stroke-linecap="round" stroke-linejoin="round"/>
<mask id="mask0_0_131" style="mask-type:alpha" maskUnits="userSpaceOnUse" x="4" y="0" width="78" height="64">
<path fill-rule="evenodd" clip-rule="evenodd" d="M4 64H81.625V0H4V64Z" fill="white"/>
</mask>
<g mask="url(#mask0_0_131)">
<path fill-rule="evenodd" clip-rule="evenodd" d="M12.75 63H43.75V45.286H12.75V63Z" stroke="white" stroke-width="2" stroke-linecap="round" stroke-linejoin="round"/>
<path d="M14.9639 45.2861V34.2141" stroke="white" stroke-width="2" stroke-linecap="round" stroke-linejoin="round"/>
<path d="M41.5361 45.2861V34.2141" stroke="white" stroke-width="2" stroke-linecap="round" stroke-linejoin="round"/>
<path fill-rule="evenodd" clip-rule="evenodd" d="M39.3213 51.9287C39.3213 53.1517 38.3303 54.1427 37.1073 54.1427C35.8833 54.1427 34.8923 53.1517 34.8923 51.9287C34.8923 50.7057 35.8833 49.7137 37.1073 49.7137C38.3303 49.7137 39.3213 50.7057 39.3213 51.9287Z" fill="white"/>
<path fill-rule="evenodd" clip-rule="evenodd" d="M21.6074 51.9287C21.6074 53.1517 20.6164 54.1427 19.3924 54.1427C18.1694 54.1427 17.1784 53.1517 17.1784 51.9287C17.1784 50.7057 18.1694 49.7137 19.3924 49.7137C20.6164 49.7137 21.6074 50.7057 21.6074 51.9287Z" fill="white"/>
<path fill-rule="evenodd" clip-rule="evenodd" d="M23 29C23.8019 31.329 25.9585 33 28.4995 33C31.0415 33 33.1981 31.329 34 29" fill="#66BB6A"/>
<path d="M23 29C23.8019 31.329 25.9585 33 28.4995 33C31.0415 33 33.1981 31.329 34 29" stroke="white" stroke-width="2" stroke-linecap="round" stroke-linejoin="round"/>
</g>
</g>
<defs>
<filter id="filter0_dd_0_131" x="-9.15527e-05" y="0" width="86.0001" height="72" filterUnits="userSpaceOnUse" color-interpolation-filters="sRGB">
<feFlood flood-opacity="0" result="BackgroundImageFix"/>
<feColorMatrix in="SourceAlpha" type="matrix" values="0 0 0 0 0 0 0 0 0 0 0 0 0 0 0 0 0 0 127 0" result="hardAlpha"/>
<feOffset dy="4"/>
<feGaussianBlur stdDeviation="2"/>
<feComposite in2="hardAlpha" operator="out"/>
<feColorMatrix type="matrix" values="0 0 0 0 0 0 0 0 0 0 0 0 0 0 0 0 0 0 0.25 0"/>
<feBlend mode="normal" in2="BackgroundImageFix" result="effect1_dropShadow_0_131"/>
<feColorMatrix in="SourceAlpha" type="matrix" values="0 0 0 0 0 0 0 0 0 0 0 0 0 0 0 0 0 0 127 0" result="hardAlpha"/>
<feOffset dy="4"/>
<feGaussianBlur stdDeviation="2"/>
<feComposite in2="hardAlpha" operator="out"/>
<feColorMatrix type="matrix" values="0 0 0 0 0 0 0 0 0 0 0 0 0 0 0 0 0 0 0.25 0"/>
<feBlend mode="normal" in2="effect1_dropShadow_0_131" result="effect2_dropShadow_0_131"/>
<feBlend mode="normal" in="SourceGraphic" in2="effect2_dropShadow_0_131" result="shape"/>
</filter>
</defs>
</svg>
