<svg width="34" height="35" viewBox="0 0 34 35" fill="none" xmlns="http://www.w3.org/2000/svg">
<mask id="mask0_1_29" style="mask-type:alpha" maskUnits="userSpaceOnUse" x="0" y="0" width="34" height="35">
<path fill-rule="evenodd" clip-rule="evenodd" d="M0 0.437988H33.7305V34.4184H0V0.437988Z" fill="white"/>
</mask>
<g mask="url(#mask0_1_29)">
<path fill-rule="evenodd" clip-rule="evenodd" d="M16.865 0.437256C7.55075 0.437256 -0.000488281 8.06907 -0.000488281 17.4827C-0.000488281 25.8287 5.9421 32.7634 13.7803 34.2308C12.6299 31.4569 11.5205 27.981 10.9417 23.8763C10.5317 20.9756 10.469 18.3529 10.563 16.1153C10.7777 17.3925 11.1515 18.9671 11.822 20.6953C12.4876 22.4113 13.2666 23.8153 13.9636 24.8951C13.9636 22.7696 14.253 19.4595 15.852 15.8593C16.6021 14.1701 17.4752 12.7881 18.2855 11.7034C17.6802 13.8313 17.1158 16.5784 16.9856 19.8032C16.8939 22.0091 17.0217 23.9835 17.2364 25.6581C17.943 25.056 18.8185 24.1834 19.6289 22.9866C20.7142 21.3803 21.2447 19.8446 21.5173 18.7868C21.5486 21.1316 21.3919 24.0396 20.7624 27.3131C20.2342 30.0456 19.4938 32.427 18.7293 34.4184C27.1656 33.48 33.7304 26.2577 33.7304 17.4827C33.7304 8.06907 26.1792 0.437256 16.865 0.437256" fill="#13AA57"/>
</g>
</svg>
